<?xml version="1.0" encoding="UTF-8"?>
<!DOCTYPE svg PUBLIC "-//W3C//DTD SVG 1.1//EN" "http://www.w3.org/Graphics/SVG/1.1/DTD/svg11.dtd">
<svg xmlns="http://www.w3.org/2000/svg" version="1.1" width="1301px" height="724px" style="shape-rendering:geometricPrecision; text-rendering:geometricPrecision; image-rendering:optimizeQuality; fill-rule:evenodd; clip-rule:evenodd" xmlns:xlink="http://www.w3.org/1999/xlink">
<g><path style="opacity:0.947" fill="#fefffe" d="M 626.5,102.5 C 638.341,110.489 646.007,121.489 649.5,135.5C 630.693,144.064 613.026,154.397 596.5,166.5C 588.919,161.361 583.752,154.361 581,145.5C 580.333,144.167 580.333,142.833 581,141.5C 594.248,126.073 609.414,113.073 626.5,102.5 Z"/></g>
<g><path style="opacity:0.962" fill="#fefffe" d="M 727.5,110.5 C 740.326,109.852 752.993,110.852 765.5,113.5C 769.637,128.244 769.471,142.91 765,157.5C 748.009,162.832 731.009,162.832 714,157.5C 709.415,143.172 709.415,128.838 714,114.5C 718.488,112.758 722.988,111.424 727.5,110.5 Z"/></g>
<g><path style="opacity:0.999" fill="#fafafa" d="M 273.5,132.5 C 273.557,131.391 273.89,130.391 274.5,129.5C 291.478,125.469 308.478,125.636 325.5,130C 384.256,195.409 440.756,262.576 495,331.5C 495.483,332.448 495.649,333.448 495.5,334.5C 478.484,338.527 461.484,338.36 444.5,334C 414.503,295.856 383.67,258.356 352,221.5C 359.57,249.868 369.737,277.368 382.5,304C 380.006,306.283 377.006,307.617 373.5,308C 362.284,309.223 351.284,308.223 340.5,305C 309.552,276.379 277.719,248.879 245,222.5C 269.125,260.023 294.791,296.689 322,332.5C 322.483,333.448 322.649,334.448 322.5,335.5C 306.888,339.287 291.222,339.454 275.5,336C 273.324,335.837 271.491,335.004 270,333.5C 221.116,268.077 174.949,200.744 131.5,131.5C 134.572,129.728 137.905,128.561 141.5,128C 156.331,126.236 170.997,127.236 185.5,131C 229.494,166.151 272.161,202.985 313.5,241.5C 300.197,212.149 288.363,181.816 278,150.5C 276.181,144.559 274.681,138.559 273.5,132.5 Z"/></g>
<g><path style="opacity:0.514" fill="#7b7b7b" d="M 274.5,129.5 C 273.89,130.391 273.557,131.391 273.5,132.5C 272.115,131.053 272.448,130.053 274.5,129.5 Z"/></g>
<g><path style="opacity:0.978" fill="#fefffe" d="M 575.5,174.5 C 586.505,174.333 597.505,174.5 608.5,175C 642.042,179.543 660.208,198.709 663,232.5C 663.833,262.506 663.667,292.506 662.5,322.5C 630.179,336.727 596.679,340.394 562,333.5C 531.849,324.218 519.182,303.885 524,272.5C 527.432,256.797 536.598,245.964 551.5,240C 572.459,232.898 593.459,232.732 614.5,239.5C 616.268,229.547 612.268,223.047 602.5,220C 584.325,216.456 566.658,218.289 549.5,225.5C 539.192,215.42 534.692,203.087 536,188.5C 548.461,181.515 561.628,176.848 575.5,174.5 Z M 585.5,270.5 C 591.842,270.334 598.175,270.5 604.5,271C 607.264,271.532 609.93,272.366 612.5,273.5C 613.664,280.476 613.831,287.476 613,294.5C 600.932,298.952 589.099,298.452 577.5,293C 571.66,285.718 572.326,279.051 579.5,273C 581.723,272.434 583.723,271.6 585.5,270.5 Z"/></g>
<g><path style="opacity:0.988" fill="#fefffe" d="M 713.5,176.5 C 730.833,180.5 748.167,180.5 765.5,176.5C 765.5,228.5 765.5,280.5 765.5,332.5C 748.171,336.474 730.838,336.474 713.5,332.5C 713.5,280.5 713.5,228.5 713.5,176.5 Z"/></g>
<g><path style="opacity:1" fill="#7c7c7c" d="M 244.5,221.5 C 243.833,221.5 243.5,221.833 243.5,222.5C 242.636,221.312 241.636,220.145 240.5,219C 242.412,218.721 243.746,219.554 244.5,221.5 Z"/></g>
<g><path style="opacity:0.999" fill="#fafafa" d="M 280.5,453.5 C 285.105,450.564 289.105,446.898 292.5,442.5C 311.359,423.809 329.692,404.642 347.5,385C 360.753,380.846 374.086,380.513 387.5,384C 388.428,384.388 389.095,385.055 389.5,386C 380.709,413.322 374.543,441.155 371,469.5C 397.539,432.786 422.706,395.119 446.5,356.5C 463.094,351.679 479.761,351.345 496.5,355.5C 496.833,356.167 497.167,356.833 497.5,357.5C 454.287,426.717 408.287,494.051 359.5,559.5C 341.936,564.412 324.269,564.745 306.5,560.5C 307.592,545.355 309.759,530.355 313,515.5C 318.218,492.958 323.885,470.625 330,448.5C 294.469,487.031 257.303,523.864 218.5,559C 204.348,562.893 190.015,563.893 175.5,562C 171.539,561.596 167.872,560.43 164.5,558.5C 198.147,489.029 234.48,421.196 273.5,355C 287.708,351.466 302.041,350.799 316.5,353C 319.79,353.253 322.79,354.253 325.5,356C 303.692,392.441 283.025,429.608 263.5,467.5C 263.667,467.833 263.833,468.167 264,468.5C 269.248,463.142 274.748,458.142 280.5,453.5 Z"/></g>
<g><path style="opacity:0.071" fill="#484848" d="M 496.5,355.5 C 498.424,355.711 498.757,356.377 497.5,357.5C 497.167,356.833 496.833,356.167 496.5,355.5 Z"/></g>
<g><path style="opacity:0.978" fill="#fefffe" d="M 543.5,383.5 C 554.505,383.333 565.505,383.5 576.5,384C 610.042,388.543 628.208,407.709 631,441.5C 631.833,471.506 631.667,501.506 630.5,531.5C 600.257,544.696 568.923,548.863 536.5,544C 502.376,536.922 487.542,516.089 492,481.5C 495.432,465.797 504.598,454.964 519.5,449C 540.459,441.898 561.459,441.732 582.5,448.5C 584.268,438.547 580.268,432.047 570.5,429C 552.325,425.456 534.658,427.289 517.5,434.5C 507.192,424.42 502.692,412.087 504,397.5C 516.461,390.515 529.628,385.848 543.5,383.5 Z M 553.5,479.5 C 559.842,479.334 566.175,479.5 572.5,480C 575.264,480.532 577.93,481.366 580.5,482.5C 581.664,489.476 581.831,496.476 581,503.5C 568.932,507.952 557.099,507.452 545.5,502C 539.66,494.718 540.326,488.051 547.5,482C 549.723,481.434 551.723,480.6 553.5,479.5 Z"/></g>
<g><path style="opacity:0.974" fill="#fefffe" d="M 687.5,384.5 C 695.507,384.334 703.507,384.5 711.5,385C 717.037,385.421 722.37,386.587 727.5,388.5C 734.167,423.833 743.333,458.5 755,492.5C 767.482,458.239 777.315,423.239 784.5,387.5C 802.5,383.5 820.5,383.5 838.5,387.5C 821.92,460.245 796.253,529.578 761.5,595.5C 742.167,600.833 722.833,600.833 703.5,595.5C 714.979,578.049 725.312,559.882 734.5,541C 734.355,540.228 734.022,539.561 733.5,539C 728.839,538.818 724.339,537.985 720,536.5C 697.922,488.765 681.755,439.099 671.5,387.5C 676.997,386.698 682.33,385.698 687.5,384.5 Z"/></g>
<g><path style="opacity:0.882" fill="#aeaeae" d="M 292.5,442.5 C 289.105,446.898 285.105,450.564 280.5,453.5C 283.895,449.102 287.895,445.436 292.5,442.5 Z"/></g>
</svg>
